<svg width="189" height="32" viewBox="0 0 189 32" fill="none" xmlns="http://www.w3.org/2000/svg">
<g clip-path="url(#clip0)">
<path d="M27.7 23.81L17.58 19.46L24 13.64L26.89 18.74C27.96 20.63 28.24 22.44 27.7 23.81ZM22.61 26.41H9.93003L15.99 20.91L26.43 25.39C25.49 26.05 24.17 26.41 22.61 26.41ZM7.01003 26.39C4.95003 26.27 3.38003 25.5 2.66003 24.24C2.18003 23.39 2.08003 22.32 2.33003 21.14L8.23003 17.57L14 20.05L7.01003 26.39ZM9.30003 8.1L13.72 11.95L3.70003 18.01L9.30003 8.1ZM10.94 5.23C11.05 5.04 11.16 4.86 11.28 4.69C12.38 3.1 13.73 2.2 15.08 2.2C15.85 2.2 16.62 2.49 17.34 3.03L14.14 9.69L10.3 6.35L10.94 5.23ZM18.42 16.04L15.6 18.6L10.3 16.32L15.29 13.3L18.42 16.04ZM18.87 4.66C18.99 4.84 19.11 5.03 19.23 5.23L19.91 6.4L23 11.88L19.89 14.7L15.7 11.05L18.81 4.58C18.83 4.61 18.85 4.63 18.87 4.66ZM28.81 17.66L21.28 4.37C19.71 1.59 17.45 0 15.08 0C12.71 0 10.45 1.59 8.88003 4.37L1.36003 17.66C-0.209974 20.44 -0.439974 23.23 0.750026 25.32C1.93003 27.41 4.41003 28.61 7.56003 28.61H22.61C25.76 28.61 28.24 27.41 29.42 25.32C30.6 23.23 30.38 20.44 28.81 17.66Z" fill="#E42313"/>
<path d="M45.75 5.62998V2.48998C45.75 2.25998 45.83 2.06998 45.98 1.93998C46.13 1.79998 46.31 1.72998 46.51 1.72998C46.71 1.72998 46.89 1.79998 47.04 1.93998C47.19 2.06998 47.27 2.25998 47.27 2.48998V11.03C47.27 11.93 46.95 12.69 46.32 13.33C45.69 13.97 44.92 14.28 44.02 14.28C43.12 14.28 42.36 13.96 41.72 13.33C41.09 12.7 40.77 11.93 40.77 11.03V8.22998C40.77 7.32998 41.09 6.56998 41.72 5.92998C42.36 5.28998 43.12 4.97998 44.02 4.97998C44.69 4.97998 45.27 5.19998 45.75 5.62998ZM45.24 6.99998C44.9 6.65998 44.49 6.48998 44.01 6.48998C43.52 6.48998 43.11 6.65998 42.78 6.99998C42.44 7.33998 42.27 7.74998 42.27 8.22998V11.03C42.27 11.51 42.44 11.92 42.78 12.26C43.12 12.6 43.53 12.77 44.01 12.77C44.49 12.77 44.9 12.6 45.24 12.26C45.58 11.92 45.75 11.51 45.75 11.03V8.22998C45.75 7.74998 45.58 7.33998 45.24 6.99998Z" fill="black"/>
<path d="M55.12 8.22999V9.28999C55.12 9.48999 55.04 9.66999 54.89 9.81999C54.74 9.96999 54.56 10.05 54.36 10.05H50.12V11.03C50.12 11.48 50.31 11.89 50.69 12.24C51.07 12.59 51.51 12.77 52.01 12.77C52.61 12.77 53.1 12.58 53.48 12.2C53.64 11.97 53.84 11.85 54.08 11.85C54.28 11.85 54.46 11.93 54.62 12.08C54.78 12.23 54.86 12.41 54.86 12.61C54.86 12.76 54.81 12.91 54.71 13.05C54.67 13.12 54.61 13.2 54.52 13.29C53.89 13.96 53.06 14.29 52.01 14.29C51.12 14.29 50.33 13.97 49.64 13.34C48.95 12.7 48.6 11.94 48.6 11.04V8.23999C48.6 7.33999 48.92 6.57999 49.55 5.93999C50.19 5.29999 50.95 4.98999 51.85 4.98999C52.75 4.98999 53.51 5.30999 54.15 5.93999C54.8 6.56999 55.12 7.33999 55.12 8.22999ZM53.6 8.53999V8.23999C53.6 7.75999 53.43 7.34999 53.09 7.00999C52.75 6.66999 52.34 6.49999 51.86 6.49999C51.38 6.49999 50.96 6.66999 50.63 7.00999C50.29 7.34999 50.12 7.75999 50.12 8.23999V8.53999H53.6Z" fill="black"/>
<path d="M61.84 11.59C61.84 12.4 61.53 13.05 60.91 13.54C60.29 14.03 59.56 14.28 58.73 14.28C58.26 14.28 57.77 14.18 57.28 13.97C56.79 13.76 56.42 13.48 56.18 13.11C56.08 12.97 56.03 12.82 56.03 12.66C56.03 12.46 56.11 12.28 56.27 12.13C56.43 11.98 56.61 11.9 56.81 11.9C57.02 11.9 57.22 12.01 57.41 12.23C57.71 12.6 58.15 12.79 58.73 12.79C59.23 12.79 59.63 12.67 59.91 12.42C60.19 12.17 60.33 11.89 60.33 11.58C60.33 11.25 60.18 10.97 59.89 10.73C59.6 10.5 59.24 10.3 58.83 10.14C58.42 9.96999 58 9.80999 57.58 9.63999C57.16 9.46999 56.8 9.19999 56.51 8.82999C56.23 8.46999 56.08 7.99999 56.08 7.44999C56.08 6.66999 56.36 6.06999 56.91 5.63999C57.46 5.20999 58.1 4.98999 58.83 4.98999C59.31 4.98999 59.79 5.10999 60.27 5.34999C60.75 5.58999 61.12 5.90999 61.38 6.31999C61.46 6.43999 61.5 6.57999 61.5 6.73999C61.5 6.94999 61.42 7.12999 61.26 7.27999C61.1 7.42999 60.92 7.49999 60.71 7.49999C60.49 7.49999 60.29 7.37999 60.1 7.13999C59.79 6.69999 59.36 6.46999 58.82 6.46999C58.43 6.46999 58.12 6.56999 57.9 6.75999C57.68 6.94999 57.58 7.17999 57.58 7.44999C57.58 7.72999 57.73 7.96999 58.02 8.15999C58.31 8.35999 58.67 8.53999 59.08 8.70999C59.49 8.87999 59.9 9.05999 60.33 9.23999C60.75 9.41999 61.11 9.70999 61.4 10.12C61.7 10.52 61.84 11.01 61.84 11.59Z" fill="black"/>
<path d="M63.09 3.42999C62.89 3.22999 62.8 2.99999 62.8 2.72999C62.8 2.45999 62.9 2.21999 63.09 2.02999C63.29 1.82999 63.5201 1.73999 63.7901 1.73999C64.0601 1.73999 64.3 1.83999 64.49 2.02999C64.69 2.22999 64.78 2.45999 64.78 2.72999C64.78 2.99999 64.68 3.23999 64.49 3.42999C64.29 3.62999 64.0601 3.72999 63.7901 3.72999C63.5201 3.72999 63.29 3.62999 63.09 3.42999ZM63.0401 13.37V5.88999C63.0401 5.65999 63.1101 5.46999 63.2701 5.33999C63.4201 5.19999 63.6 5.13999 63.8 5.13999C64 5.13999 64.1801 5.20999 64.3301 5.33999C64.4801 5.47999 64.56 5.65999 64.56 5.88999V13.37C64.56 13.6 64.4901 13.79 64.3301 13.92C64.1801 14.06 64 14.12 63.8 14.12C63.6 14.12 63.4201 14.05 63.2701 13.92C63.1101 13.79 63.0401 13.61 63.0401 13.37Z" fill="black"/>
<path d="M70.9299 13.9V13.32C70.4499 13.75 69.8699 13.97 69.1899 13.97C68.2899 13.97 67.5299 13.65 66.8899 13.02C66.2499 12.39 65.9399 11.62 65.9399 10.72V8.22998C65.9399 7.32998 66.2599 6.56998 66.8899 5.92998C67.5299 5.28998 68.2899 4.97998 69.1899 4.97998C70.0899 4.97998 70.8499 5.29998 71.4899 5.92998C72.1199 6.56998 72.4399 7.32998 72.4399 8.22998V13.9C72.4399 14.8 72.1199 15.56 71.4899 16.2C70.8499 16.83 70.0899 17.15 69.1899 17.15C68.6899 17.15 68.1699 17.04 67.6499 16.83C67.1299 16.61 66.7399 16.31 66.4899 15.91C66.3899 15.77 66.3399 15.62 66.3399 15.47C66.3399 15.27 66.4199 15.09 66.5799 14.94C66.7399 14.79 66.9199 14.71 67.1199 14.71C67.3399 14.71 67.5399 14.83 67.7299 15.06C68.0299 15.44 68.5199 15.63 69.1999 15.63C69.6799 15.63 70.0899 15.46 70.4299 15.12C70.7699 14.8 70.9299 14.39 70.9299 13.9ZM70.9299 10.73V8.22998C70.9299 7.74998 70.7599 7.33998 70.4199 6.99998C70.0799 6.65998 69.6699 6.49998 69.1899 6.49998C68.6999 6.49998 68.2899 6.66998 67.9599 6.99998C67.6199 7.33998 67.4499 7.74998 67.4499 8.22998V10.72C67.4499 11.2 67.6199 11.62 67.9599 11.95C68.2999 12.29 68.7099 12.46 69.1899 12.46C69.6699 12.46 70.0799 12.29 70.4199 11.95C70.7699 11.62 70.9299 11.21 70.9299 10.73Z" fill="black"/>
<path d="M80.38 8.22998V13.37C80.38 13.6 80.3 13.79 80.15 13.92C80 14.06 79.82 14.12 79.62 14.12C79.42 14.12 79.24 14.05 79.09 13.92C78.94 13.78 78.86 13.6 78.86 13.37V8.22998C78.86 7.74998 78.69 7.33998 78.35 6.99998C78.01 6.65998 77.6 6.48998 77.12 6.48998C76.64 6.48998 76.22 6.65998 75.89 6.99998C75.55 7.33998 75.38 7.74998 75.38 8.22998V13.37C75.38 13.6 75.3 13.79 75.15 13.92C75 14.06 74.82 14.12 74.62 14.12C74.42 14.12 74.24 14.05 74.09 13.92C73.94 13.78 73.86 13.6 73.86 13.37V8.22998C73.86 7.32998 74.18 6.56998 74.81 5.92998C75.44 5.28998 76.21 4.97998 77.11 4.97998C78.01 4.97998 78.77 5.29998 79.41 5.92998C80.06 6.56998 80.38 7.33998 80.38 8.22998Z" fill="black"/>
<path d="M84.85 5.12995V4.00995C84.85 3.30995 85.1 2.72995 85.6 2.26995C86.1 1.80995 86.72 1.56995 87.45 1.56995C88.06 1.56995 88.52 1.68995 88.83 1.91995C89.13 2.14995 89.28 2.41995 89.28 2.71995C89.28 2.91995 89.22 3.08995 89.1 3.22995C88.98 3.35995 88.83 3.42995 88.65 3.42995C88.49 3.42995 88.34 3.38995 88.2 3.28995C87.96 3.14995 87.71 3.07995 87.46 3.07995C87.11 3.07995 86.84 3.16995 86.65 3.34995C86.46 3.52995 86.37 3.74995 86.37 3.99995V5.11995H88.34C88.57 5.11995 88.76 5.19995 88.89 5.34995C89.03 5.49995 89.09 5.67995 89.09 5.87995C89.09 6.07995 89.02 6.25995 88.89 6.40995C88.76 6.55995 88.57 6.63995 88.34 6.63995H86.37V13.3699C86.37 13.5999 86.3 13.7899 86.14 13.9199C85.99 14.0599 85.81 14.1199 85.61 14.1199C85.41 14.1199 85.23 14.0499 85.08 13.9199C84.93 13.7799 84.85 13.5999 84.85 13.3699V6.64995" fill="black"/>
<path d="M95.27 7.88998V11.38C95.27 12.23 94.97 12.92 94.37 13.47C93.77 14.01 93.06 14.29 92.23 14.29C91.4 14.29 90.69 14.05 90.08 13.56C89.47 13.08 89.17 12.41 89.17 11.55C89.17 10.77 89.44 10.16 89.97 9.69998C90.5 9.23998 91.18 8.92998 92.01 8.74998L93.75 8.36998V7.88998C93.75 6.95998 93.25 6.49998 92.25 6.49998C91.93 6.49998 91.65 6.57998 91.43 6.72998C91.21 6.88998 91.01 7.03998 90.84 7.18998C90.67 7.33998 90.49 7.41998 90.3 7.41998C90.09 7.41998 89.91 7.34998 89.76 7.19998C89.61 7.04998 89.54 6.87998 89.54 6.65998C89.54 6.43998 89.63 6.23998 89.81 6.03998C90.43 5.32998 91.24 4.97998 92.25 4.97998C93.18 4.97998 93.91 5.24998 94.45 5.78998C95 6.32998 95.27 7.02998 95.27 7.88998ZM93.76 9.83998L92.17 10.2C91.7 10.3 91.33 10.48 91.07 10.72C90.81 10.97 90.69 11.23 90.69 11.53C90.69 11.9 90.82 12.2 91.09 12.43C91.36 12.66 91.73 12.77 92.22 12.77C92.67 12.77 93.04 12.64 93.33 12.38C93.62 12.12 93.76 11.79 93.76 11.38V9.83998V9.83998Z" fill="black"/>
<path d="M102.61 12.6C102.61 12.75 102.56 12.9 102.46 13.04C102.17 13.44 101.78 13.75 101.29 13.96C100.8 14.17 100.29 14.28 99.75 14.28C98.83 14.28 98.08 14.01 97.48 13.48C96.88 12.95 96.59 12.25 96.59 11.38V7.88999C96.59 7.01999 96.89 6.31999 97.48 5.78999C98.08 5.24999 98.83 4.98999 99.75 4.98999C100.25 4.98999 100.77 5.09999 101.29 5.30999C101.81 5.52999 102.2 5.82999 102.45 6.21999C102.55 6.35999 102.6 6.50999 102.6 6.65999C102.6 6.85999 102.52 7.03999 102.36 7.18999C102.2 7.33999 102.02 7.41999 101.82 7.41999C101.6 7.41999 101.4 7.30999 101.22 7.06999C100.92 6.68999 100.43 6.49999 99.75 6.49999C99.21 6.49999 98.81 6.62999 98.53 6.87999C98.25 7.13999 98.11 7.46999 98.11 7.88999V11.38C98.11 11.79 98.25 12.13 98.53 12.39C98.81 12.65 99.22 12.78 99.75 12.78C100.35 12.78 100.84 12.59 101.22 12.21C101.38 11.98 101.58 11.86 101.82 11.86C102.02 11.86 102.2 11.93 102.36 12.09C102.53 12.23 102.61 12.4 102.61 12.6Z" fill="black"/>
<path d="M103.55 5.13002V3.52002C103.55 3.29002 103.62 3.10002 103.78 2.97002C103.93 2.83002 104.11 2.77002 104.31 2.77002C104.51 2.77002 104.69 2.84002 104.84 2.97002C104.99 3.11002 105.07 3.29002 105.07 3.52002V5.14002H107.44C107.67 5.14002 107.86 5.22002 107.99 5.37002C108.13 5.52002 108.2 5.70002 108.2 5.90002C108.2 6.10002 108.13 6.28002 107.99 6.43002C107.85 6.58002 107.67 6.66002 107.44 6.66002H105.07V11.86C105.07 12.11 105.16 12.33 105.35 12.51C105.54 12.69 105.81 12.78 106.16 12.78C106.42 12.78 106.7 12.69 106.98 12.5C107.27 12.31 107.48 12.22 107.61 12.22C107.84 12.22 108.03 12.3 108.17 12.47C108.31 12.64 108.38 12.83 108.38 13.05C108.38 13.26 108.23 13.47 107.94 13.69C107.4 14.09 106.8 14.29 106.16 14.29C105.42 14.29 104.81 14.06 104.31 13.59C103.81 13.13 103.56 12.55 103.56 11.85V6.65002" fill="black"/>
<path d="M115.45 8.22998V11.03C115.45 11.93 115.13 12.69 114.5 13.33C113.86 13.97 113.1 14.28 112.2 14.28C111.3 14.28 110.54 13.96 109.9 13.33C109.26 12.7 108.95 11.93 108.95 11.03V8.22998C108.95 7.32998 109.27 6.56998 109.9 5.92998C110.54 5.28998 111.3 4.97998 112.2 4.97998C113.1 4.97998 113.86 5.29998 114.5 5.92998C115.13 6.56998 115.45 7.33998 115.45 8.22998ZM113.94 11.03V8.22998C113.94 7.74998 113.77 7.33998 113.43 6.99998C113.09 6.65998 112.68 6.48998 112.2 6.48998C111.72 6.48998 111.3 6.65998 110.97 6.99998C110.63 7.33998 110.46 7.74998 110.46 8.22998V11.03C110.46 11.51 110.63 11.93 110.97 12.26C111.31 12.6 111.72 12.77 112.2 12.77C112.68 12.77 113.09 12.6 113.43 12.26C113.77 11.93 113.94 11.51 113.94 11.03Z" fill="black"/>
<path d="M122.1 6.33998C122.1 6.53998 122.02 6.71998 121.86 6.87998C121.7 7.03998 121.53 7.11998 121.32 7.11998C121.12 7.11998 120.94 7.03998 120.78 6.87998L120.75 6.84998C120.47 6.61998 120.14 6.49998 119.77 6.49998C119.33 6.49998 118.98 6.64998 118.72 6.95998C118.46 7.26998 118.33 7.72998 118.33 8.33998V13.38C118.33 13.61 118.26 13.8 118.1 13.93C117.95 14.07 117.77 14.13 117.57 14.13C117.37 14.13 117.19 14.06 117.04 13.93C116.89 13.79 116.81 13.61 116.81 13.38V8.33998C116.81 7.38998 117.07 6.59998 117.58 5.94998C118.09 5.30998 118.82 4.97998 119.76 4.97998C120.12 4.97998 120.5 5.05998 120.89 5.20998C121.28 5.35998 121.61 5.55998 121.86 5.81998C122.03 5.97998 122.1 6.14998 122.1 6.33998Z" fill="black"/>
<path d="M129.33 5.86002C129.33 5.93002 129.31 6.03002 129.27 6.15002L125.35 16.66C125.23 16.99 125 17.16 124.66 17.16C124.46 17.16 124.27 17.09 124.11 16.96C123.95 16.82 123.87 16.65 123.87 16.44C123.87 16.37 123.89 16.27 123.93 16.15L125 13.29L122.41 6.23002C122.36 6.11002 122.33 5.99002 122.33 5.87002C122.33 5.66002 122.41 5.48002 122.57 5.35002C122.73 5.21002 122.91 5.15002 123.11 5.15002C123.46 5.15002 123.69 5.32002 123.8 5.65002L125.76 11.25L127.85 5.65002C127.96 5.32002 128.19 5.15002 128.54 5.15002C128.74 5.15002 128.93 5.22002 129.09 5.35002C129.25 5.48002 129.33 5.65002 129.33 5.86002Z" fill="black"/>
<path d="M139.05 7.94V11.49C139.05 12.35 138.75 13.06 138.13 13.61C137.52 14.16 136.8 14.44 135.96 14.44C135.12 14.44 134.39 14.19 133.78 13.7C133.16 13.21 132.86 12.53 132.86 11.66C132.86 10.87 133.13 10.24 133.67 9.78C134.21 9.31 134.9 8.99 135.74 8.82L137.51 8.44V7.94C137.51 7 137 6.53 135.99 6.53C135.66 6.53 135.39 6.61 135.16 6.77C134.93 6.93 134.74 7.09 134.56 7.24C134.39 7.39 134.2 7.47 134.01 7.47C133.8 7.47 133.61 7.4 133.46 7.25C133.31 7.1 133.24 6.92 133.24 6.71C133.24 6.49 133.33 6.28 133.52 6.08C134.15 5.36 134.97 5 135.99 5C136.93 5 137.68 5.27 138.23 5.82C138.78 6.36 139.05 7.07 139.05 7.94ZM137.52 9.93L135.91 10.3C135.43 10.4 135.06 10.58 134.8 10.83C134.54 11.08 134.41 11.36 134.41 11.65C134.41 12.03 134.55 12.33 134.82 12.56C135.09 12.79 135.47 12.91 135.97 12.91C136.43 12.91 136.81 12.78 137.1 12.51C137.39 12.24 137.54 11.91 137.54 11.5V9.93H137.52Z" fill="black"/>
<path d="M147.35 5.88002C147.35 5.99002 147.33 6.09002 147.29 6.19002L144.37 13.8C144.22 14.21 143.98 14.42 143.67 14.42C143.35 14.42 143.11 14.22 142.96 13.81L140.04 6.20002C140 6.11002 139.98 6.00002 139.98 5.89002C139.98 5.67002 140.06 5.50002 140.23 5.36002C140.39 5.22002 140.58 5.15002 140.78 5.15002C141.11 5.15002 141.34 5.31002 141.47 5.64002L143.68 11.53L145.89 5.65002C146.02 5.32002 146.25 5.16002 146.57 5.16002C146.77 5.16002 146.95 5.23002 147.11 5.37002C147.27 5.49002 147.35 5.66002 147.35 5.88002Z" fill="black"/>
<path d="M154.9 8.28998V9.36998C154.9 9.57998 154.82 9.74998 154.67 9.90998C154.52 10.06 154.34 10.14 154.13 10.14H149.83V11.14C149.83 11.6 150.02 12.01 150.41 12.37C150.79 12.73 151.24 12.91 151.76 12.91C152.37 12.91 152.87 12.71 153.25 12.33C153.41 12.09 153.62 11.97 153.86 11.97C154.06 11.97 154.25 12.05 154.41 12.2C154.57 12.35 154.65 12.53 154.65 12.74C154.65 12.89 154.6 13.04 154.5 13.18C154.46 13.25 154.39 13.33 154.3 13.43C153.66 14.11 152.82 14.45 151.75 14.45C150.85 14.45 150.05 14.13 149.34 13.48C148.64 12.84 148.29 12.06 148.29 11.14V8.28998C148.29 7.37998 148.61 6.59998 149.26 5.94998C149.91 5.30998 150.68 4.97998 151.6 4.97998C152.51 4.97998 153.29 5.29998 153.94 5.94998C154.57 6.59998 154.9 7.37998 154.9 8.28998ZM153.36 8.59998V8.28998C153.36 7.79998 153.19 7.37998 152.84 7.03998C152.5 6.69998 152.08 6.52998 151.59 6.52998C151.1 6.52998 150.68 6.69998 150.34 7.03998C150 7.37998 149.83 7.79998 149.83 8.28998V8.59998H153.36Z" fill="black"/>
<path d="M156.5 3.41995C156.3 3.21995 156.2 2.97995 156.2 2.70995C156.2 2.42995 156.3 2.19995 156.5 1.99995C156.7 1.79995 156.94 1.69995 157.21 1.69995C157.49 1.69995 157.72 1.79995 157.92 1.99995C158.12 2.19995 158.22 2.43995 158.22 2.70995C158.22 2.98995 158.12 3.21995 157.92 3.41995C157.72 3.61995 157.48 3.71995 157.21 3.71995C156.94 3.71995 156.7 3.61995 156.5 3.41995ZM156.45 13.52V5.90995C156.45 5.66995 156.53 5.48995 156.68 5.34995C156.83 5.20995 157.01 5.13995 157.22 5.13995C157.43 5.13995 157.6 5.20995 157.76 5.34995C157.91 5.48995 157.99 5.67995 157.99 5.90995V13.52C157.99 13.76 157.91 13.94 157.76 14.08C157.6 14.22 157.43 14.29 157.22 14.29C157.01 14.29 156.84 14.22 156.68 14.08C156.53 13.94 156.45 13.75 156.45 13.52Z" fill="black"/>
<path d="M165.05 6.36999C165.05 6.57999 164.97 6.75999 164.81 6.91999C164.65 7.07999 164.47 7.15999 164.26 7.15999C164.06 7.15999 163.87 7.07999 163.71 6.90999L163.68 6.87999C163.39 6.63999 163.06 6.52999 162.68 6.52999C162.23 6.52999 161.87 6.68999 161.61 6.99999C161.35 7.30999 161.22 7.77999 161.22 8.40999V13.53C161.22 13.76 161.14 13.95 160.99 14.09C160.84 14.23 160.66 14.3 160.45 14.3C160.24 14.3 160.07 14.23 159.91 14.09C159.76 13.95 159.68 13.76 159.68 13.53V8.39999C159.68 7.43999 159.94 6.62999 160.46 5.96999C160.98 5.30999 161.72 4.98999 162.67 4.98999C163.04 4.98999 163.42 5.06999 163.82 5.21999C164.22 5.36999 164.55 5.57999 164.8 5.82999C164.98 5.99999 165.05 6.17999 165.05 6.36999Z" fill="black"/>
<path d="M172.43 8.28998V11.13C172.43 12.04 172.11 12.82 171.46 13.47C170.81 14.11 170.04 14.44 169.12 14.44C168.21 14.44 167.43 14.12 166.78 13.47C166.13 12.82 165.81 12.05 165.81 11.13V8.28998C165.81 7.37998 166.13 6.59998 166.78 5.94998C167.43 5.30998 168.2 4.97998 169.12 4.97998C170.03 4.97998 170.81 5.29998 171.46 5.94998C172.11 6.59998 172.43 7.37998 172.43 8.28998ZM170.89 11.14V8.28998C170.89 7.79998 170.72 7.37998 170.37 7.03998C170.03 6.69998 169.61 6.52998 169.12 6.52998C168.63 6.52998 168.21 6.69998 167.87 7.03998C167.53 7.37998 167.36 7.79998 167.36 8.28998V11.13C167.36 11.62 167.53 12.04 167.87 12.38C168.21 12.72 168.63 12.9 169.12 12.9C169.61 12.9 170.03 12.73 170.37 12.38C170.72 12.05 170.89 11.63 170.89 11.14Z" fill="black"/>
<path d="M46.6599 22.64V25.56C46.6599 26.37 46.3799 27.06 45.8099 27.63C45.2399 28.2 44.5499 28.48 43.7399 28.48C42.7899 28.48 42.0299 28.11 41.4499 27.38V31.17C41.4499 31.26 41.4199 31.34 41.3499 31.4C41.2899 31.46 41.2099 31.49 41.1299 31.49C41.0499 31.49 40.9699 31.46 40.9099 31.4C40.8499 31.34 40.8199 31.27 40.8199 31.17V22.65C40.8199 21.85 41.0999 21.16 41.6699 20.59C42.2399 20.02 42.9299 19.73 43.7399 19.73C44.5499 19.73 45.2399 20.02 45.8099 20.59C46.3799 21.16 46.6599 21.84 46.6599 22.64ZM46.0299 25.56V22.64C46.0299 22.01 45.8099 21.47 45.3599 21.02C44.9099 20.57 44.3699 20.35 43.7399 20.35C43.1099 20.35 42.5699 20.57 42.1199 21.02C41.6699 21.47 41.4499 22.01 41.4499 22.64V25.56C41.4499 26.19 41.6699 26.73 42.1199 27.18C42.5699 27.63 43.1099 27.85 43.7399 27.85C44.3699 27.85 44.9099 27.63 45.3599 27.18C45.7999 26.73 46.0299 26.19 46.0299 25.56Z" fill="black"/>
<path d="M53.12 27.22C53.12 27.29 53.05 27.42 52.91 27.58C52.34 28.18 51.58 28.48 50.62 28.48C49.78 28.48 49.1001 28.25 48.5801 27.78C48.0601 27.31 47.8 26.69 47.8 25.93V22.29C47.8 21.52 48.0601 20.9 48.5801 20.43C49.1001 19.96 49.78 19.73 50.62 19.73C51.07 19.73 51.53 19.82 51.98 20.01C52.44 20.19 52.8001 20.47 53.0601 20.82C53.0901 20.88 53.1101 20.94 53.1101 20.99C53.1101 21.07 53.08 21.15 53.01 21.21C52.94 21.27 52.87 21.31 52.78 21.31C52.74 21.31 52.7 21.3 52.66 21.28C52.62 21.26 52.6001 21.24 52.5801 21.22C52.5601 21.2 52.54 21.18 52.51 21.13C52.48 21.09 52.4601 21.06 52.4501 21.05C51.9901 20.59 51.38 20.36 50.62 20.36C49.94 20.36 49.4 20.54 49.01 20.9C48.62 21.26 48.42 21.72 48.42 22.29V25.93C48.42 26.5 48.62 26.96 49.01 27.32C49.4 27.68 49.94 27.86 50.62 27.86C50.97 27.86 51.3301 27.79 51.7001 27.65C52.0701 27.51 52.35 27.31 52.53 27.06C52.59 26.97 52.68 26.92 52.8 26.92C52.88 26.92 52.9601 26.95 53.0201 27.01C53.0901 27.06 53.12 27.14 53.12 27.22Z" fill="black"/>
<path d="M54.61 17.33C54.51 17.24 54.47 17.12 54.47 16.98C54.47 16.84 54.52 16.73 54.61 16.63C54.7 16.53 54.82 16.49 54.96 16.49C55.1 16.49 55.21 16.54 55.31 16.63C55.41 16.72 55.45 16.84 55.45 16.98C55.45 17.12 55.4 17.23 55.31 17.33C55.22 17.43 55.1 17.47 54.96 17.47C54.82 17.47 54.7 17.42 54.61 17.33ZM54.64 28.01V20.2C54.64 20.11 54.67 20.03 54.73 19.97C54.79 19.91 54.87 19.88 54.95 19.88C55.03 19.88 55.11 19.91 55.17 19.97C55.23 20.03 55.27 20.1 55.27 20.2V28.01C55.27 28.11 55.24 28.18 55.17 28.24C55.11 28.3 55.03 28.33 54.95 28.33C54.87 28.33 54.79 28.3 54.73 28.24C54.67 28.18 54.64 28.1 54.64 28.01Z" fill="black"/>
<path d="M59.14 24.45C59.04 24.36 59 24.24 59 24.1C59 23.96 59.05 23.85 59.14 23.75C59.23 23.65 59.35 23.61 59.49 23.61C59.62 23.61 59.74 23.66 59.84 23.75C59.94 23.84 59.98 23.96 59.98 24.1C59.98 24.24 59.93 24.35 59.84 24.45C59.75 24.55 59.63 24.59 59.49 24.59C59.35 24.59 59.23 24.55 59.14 24.45Z" fill="black"/>
<path d="M68.41 27.22C68.41 27.29 68.34 27.42 68.2 27.58C67.63 28.18 66.87 28.48 65.91 28.48C65.07 28.48 64.39 28.25 63.87 27.78C63.35 27.31 63.09 26.69 63.09 25.93V22.29C63.09 21.52 63.35 20.9 63.87 20.43C64.39 19.96 65.07 19.73 65.91 19.73C66.36 19.73 66.82 19.82 67.27 20.01C67.73 20.19 68.09 20.47 68.35 20.82C68.38 20.88 68.4 20.94 68.4 20.99C68.4 21.07 68.37 21.15 68.3 21.21C68.23 21.27 68.16 21.31 68.07 21.31C68.03 21.31 67.99 21.3 67.95 21.28C67.91 21.26 67.89 21.24 67.87 21.22C67.85 21.2 67.83 21.18 67.8 21.13C67.77 21.09 67.75 21.06 67.74 21.05C67.28 20.59 66.67 20.36 65.91 20.36C65.23 20.36 64.69 20.54 64.3 20.9C63.91 21.26 63.72 21.72 63.72 22.29V25.93C63.72 26.5 63.92 26.96 64.3 27.32C64.69 27.68 65.23 27.86 65.91 27.86C66.26 27.86 66.62 27.79 66.99 27.65C67.36 27.51 67.64 27.31 67.82 27.06C67.88 26.97 67.97 26.92 68.09 26.92C68.17 26.92 68.25 26.95 68.31 27.01C68.38 27.06 68.41 27.14 68.41 27.22Z" fill="black"/>
<path d="M74.3899 20.67C74.3899 20.75 74.3499 20.83 74.2899 20.89C74.2199 20.95 74.1499 20.98 74.0599 20.98C74.0099 20.98 73.8999 20.92 73.7399 20.81C73.3499 20.5 72.9099 20.35 72.4299 20.35C71.8099 20.35 71.3199 20.56 70.9799 20.99C70.6299 21.42 70.4599 22 70.4599 22.75V28C70.4599 28.1 70.4299 28.17 70.3599 28.23C70.2999 28.29 70.2199 28.32 70.1399 28.32C70.0599 28.32 69.9799 28.29 69.9199 28.23C69.8599 28.17 69.8199 28.1 69.8199 28V22.75C69.8199 21.87 70.0499 21.14 70.4999 20.57C70.9499 20 71.5899 19.72 72.4299 19.72C72.7399 19.72 73.0799 19.79 73.4299 19.92C73.7799 20.05 74.0599 20.23 74.2799 20.45C74.3599 20.52 74.3899 20.6 74.3899 20.67Z" fill="black"/>
<path d="M80.9201 22.64V23.74C80.9201 23.82 80.8901 23.9 80.8201 23.96C80.7601 24.02 80.6801 24.06 80.6001 24.06H75.7101V25.56C75.7101 26.18 75.9501 26.72 76.4401 27.17C76.9301 27.62 77.5001 27.85 78.1501 27.85C78.5001 27.85 78.8601 27.78 79.2301 27.64C79.6001 27.5 79.8801 27.3 80.0601 27.05C80.1201 26.96 80.2101 26.91 80.3301 26.91C80.4101 26.91 80.4901 26.94 80.5501 27C80.6101 27.06 80.6401 27.14 80.6401 27.22C80.6401 27.29 80.5701 27.42 80.4301 27.58C79.8601 28.18 79.1001 28.48 78.1401 28.48C77.3301 28.48 76.6101 28.2 75.9901 27.63C75.3701 27.06 75.0601 26.37 75.0601 25.56V22.64C75.0601 21.84 75.3501 21.15 75.9201 20.58C76.4901 20.01 77.1801 19.72 77.9801 19.72C78.7801 19.72 79.4701 20.01 80.0401 20.58C80.6301 21.16 80.9201 21.84 80.9201 22.64ZM80.2901 23.43V22.64C80.2901 22.01 80.0701 21.47 79.6201 21.02C79.1701 20.57 78.6301 20.35 78.0001 20.35C77.3701 20.35 76.8301 20.57 76.3801 21.02C75.9301 21.47 75.7101 22.01 75.7101 22.64V23.43H80.2901Z" fill="black"/>
<path d="M87.59 22.28V25.92C87.59 26.67 87.33 27.28 86.8 27.76C86.27 28.24 85.64 28.48 84.89 28.48C84.13 28.48 83.49 28.27 82.96 27.84C82.43 27.41 82.17 26.83 82.17 26.08C82.17 25.42 82.4 24.88 82.86 24.48C83.32 24.08 83.9 23.79 84.62 23.64L86.96 23.13V22.28C86.96 21.69 86.79 21.22 86.44 20.88C86.09 20.53 85.59 20.36 84.93 20.36C84.59 20.36 84.3 20.41 84.05 20.51C83.8 20.61 83.61 20.72 83.5 20.83C83.38 20.95 83.27 21.05 83.17 21.15C83.07 21.25 82.98 21.3 82.9 21.3C82.81 21.3 82.74 21.27 82.68 21.21C82.62 21.15 82.58 21.08 82.58 21C82.58 20.9 82.64 20.79 82.77 20.64C83.3 20.03 84.02 19.73 84.93 19.73C85.76 19.73 86.41 19.96 86.89 20.43C87.36 20.9 87.59 21.51 87.59 22.28ZM86.96 23.79L84.72 24.29C84.14 24.43 83.68 24.65 83.33 24.95C82.98 25.25 82.81 25.63 82.81 26.08C82.81 26.62 83 27.04 83.39 27.36C83.77 27.68 84.28 27.84 84.9 27.84C85.49 27.84 85.98 27.66 86.37 27.3C86.77 26.94 86.96 26.48 86.96 25.92V23.79V23.79Z" fill="black"/>
<path d="M89.12 17.72C89.12 17.63 89.15 17.55 89.22 17.49C89.28 17.43 89.36 17.4 89.44 17.4C89.52 17.4 89.6 17.43 89.66 17.49C89.72 17.55 89.76 17.62 89.76 17.72V19.88H92.71C92.92 19.88 93.03 19.99 93.03 20.2C93.03 20.41 92.93 20.52 92.71 20.52H89.76V26.42C89.76 26.83 89.91 27.17 90.2 27.45C90.49 27.72 90.88 27.86 91.37 27.86C91.87 27.86 92.3 27.7 92.65 27.37C92.71 27.32 92.79 27.29 92.87 27.29C92.95 27.29 93.03 27.32 93.1 27.39C93.17 27.46 93.2 27.54 93.2 27.62C93.2 27.69 93.12 27.8 92.95 27.95C92.46 28.31 91.93 28.49 91.37 28.49C90.72 28.49 90.18 28.29 89.76 27.9C89.34 27.51 89.13 27.01 89.13 26.42V17.72H89.12Z" fill="black"/>
<path d="M94.12 17.33C94.03 17.24 93.98 17.12 93.98 16.98C93.98 16.84 94.03 16.73 94.12 16.63C94.22 16.53 94.33 16.49 94.47 16.49C94.61 16.49 94.72 16.54 94.82 16.63C94.92 16.73 94.96 16.84 94.96 16.98C94.96 17.12 94.91 17.23 94.82 17.33C94.73 17.42 94.61 17.47 94.47 17.47C94.33 17.47 94.22 17.42 94.12 17.33ZM94.15 28.01V20.2C94.15 20.11 94.18 20.03 94.24 19.97C94.3 19.91 94.38 19.88 94.46 19.88C94.54 19.88 94.62 19.91 94.68 19.97C94.74 20.03 94.78 20.1 94.78 20.2V28.01C94.78 28.11 94.75 28.18 94.68 28.24C94.62 28.3 94.54 28.33 94.46 28.33C94.38 28.33 94.3 28.3 94.24 28.24C94.18 28.18 94.15 28.1 94.15 28.01Z" fill="black"/>
<path d="M102.56 20.3L99.56 28.11C99.5 28.29 99.41 28.38 99.28 28.38C99.16 28.38 99.07 28.3 99 28.13L96 20.32C95.96 20.22 95.97 20.12 96.04 20.03C96.11 19.94 96.19 19.9 96.31 19.9C96.43 19.9 96.52 19.97 96.58 20.11L99.28 27.15L101.99 20.1C102.05 19.97 102.14 19.9 102.26 19.9C102.37 19.9 102.46 19.94 102.53 20.03C102.59 20.1 102.6 20.19 102.56 20.3Z" fill="black"/>
<path d="M109.43 22.64V23.74C109.43 23.82 109.4 23.9 109.33 23.96C109.27 24.02 109.19 24.06 109.11 24.06H104.22V25.56C104.22 26.18 104.46 26.72 104.95 27.17C105.44 27.62 106.01 27.85 106.66 27.85C107.01 27.85 107.37 27.78 107.74 27.64C108.11 27.5 108.39 27.3 108.57 27.05C108.63 26.96 108.72 26.91 108.84 26.91C108.92 26.91 109 26.94 109.06 27C109.12 27.06 109.15 27.14 109.15 27.22C109.15 27.29 109.08 27.42 108.94 27.58C108.37 28.18 107.61 28.48 106.65 28.48C105.84 28.48 105.13 28.2 104.51 27.63C103.89 27.06 103.58 26.37 103.58 25.56V22.64C103.58 21.84 103.87 21.15 104.44 20.58C105.01 20.01 105.7 19.72 106.5 19.72C107.3 19.72 107.99 20.01 108.56 20.58C109.14 21.16 109.43 21.84 109.43 22.64ZM108.8 23.43V22.64C108.8 22.01 108.58 21.47 108.13 21.02C107.68 20.57 107.14 20.35 106.51 20.35C105.88 20.35 105.34 20.57 104.89 21.02C104.44 21.47 104.22 22.01 104.22 22.64V23.43H108.8Z" fill="black"/>
<path d="M119.54 26.07C119.54 26.76 119.27 27.33 118.73 27.76C118.19 28.19 117.53 28.41 116.77 28.41C116.35 28.41 115.92 28.32 115.48 28.14C115.04 27.96 114.71 27.71 114.5 27.38C114.46 27.33 114.44 27.27 114.44 27.21C114.44 27.13 114.47 27.05 114.54 26.99C114.61 26.93 114.68 26.89 114.77 26.89C114.85 26.89 114.96 26.97 115.1 27.13C115.52 27.56 116.08 27.78 116.77 27.78C117.4 27.78 117.92 27.62 118.32 27.29C118.72 26.96 118.92 26.56 118.92 26.07C118.92 25.63 118.77 25.26 118.46 24.97C118.15 24.68 117.79 24.45 117.36 24.29C116.93 24.12 116.49 23.96 116.06 23.79C115.62 23.62 115.25 23.37 114.95 23.03C114.65 22.69 114.49 22.27 114.49 21.75C114.49 21.1 114.73 20.59 115.21 20.21C115.69 19.84 116.25 19.65 116.89 19.65C117.32 19.65 117.75 19.76 118.18 19.97C118.61 20.18 118.94 20.46 119.16 20.82C119.2 20.87 119.22 20.93 119.22 20.99C119.22 21.08 119.19 21.15 119.12 21.21C119.05 21.27 118.98 21.3 118.89 21.3C118.85 21.3 118.81 21.29 118.77 21.27C118.73 21.25 118.7 21.23 118.68 21.21C118.66 21.2 118.63 21.16 118.59 21.12C118.55 21.07 118.53 21.05 118.52 21.03C118.08 20.52 117.53 20.27 116.88 20.27C116.37 20.27 115.95 20.41 115.62 20.67C115.28 20.94 115.11 21.3 115.11 21.74C115.11 22.13 115.26 22.45 115.57 22.71C115.87 22.97 116.24 23.18 116.67 23.36C117.1 23.53 117.53 23.71 117.97 23.88C118.41 24.06 118.78 24.33 119.09 24.69C119.38 25.07 119.54 25.52 119.54 26.07Z" fill="black"/>
<path d="M126.54 27.14C126.54 27.21 126.47 27.34 126.33 27.5C125.76 28.1 125 28.4 124.04 28.4C123.2 28.4 122.52 28.17 122 27.7C121.48 27.23 121.22 26.61 121.22 25.85V22.2C121.22 21.43 121.48 20.81 122 20.35C122.52 19.88 123.2 19.65 124.04 19.65C124.49 19.65 124.95 19.74 125.4 19.92C125.86 20.1 126.22 20.38 126.48 20.73C126.51 20.79 126.53 20.85 126.53 20.9C126.53 20.99 126.5 21.06 126.43 21.12C126.36 21.18 126.29 21.22 126.2 21.22C126.16 21.22 126.12 21.21 126.08 21.19C126.04 21.17 126.02 21.15 126 21.14C125.98 21.12 125.96 21.1 125.93 21.05C125.9 21.01 125.88 20.98 125.87 20.97C125.41 20.51 124.8 20.28 124.04 20.28C123.36 20.28 122.82 20.46 122.43 20.82C122.04 21.18 121.85 21.64 121.85 22.21V25.85C121.85 26.42 122.05 26.88 122.43 27.24C122.82 27.6 123.36 27.78 124.04 27.78C124.39 27.78 124.75 27.71 125.12 27.57C125.49 27.43 125.77 27.23 125.95 26.98C126.01 26.88 126.1 26.84 126.22 26.84C126.3 26.84 126.38 26.87 126.44 26.93C126.5 26.98 126.54 27.05 126.54 27.14Z" fill="black"/>
<path d="M128.53 17.24C128.44 17.15 128.39 17.03 128.39 16.89C128.39 16.75 128.44 16.64 128.53 16.54C128.63 16.44 128.74 16.4 128.88 16.4C129.02 16.4 129.13 16.45 129.23 16.54C129.33 16.64 129.37 16.75 129.37 16.89C129.37 17.03 129.32 17.14 129.23 17.24C129.14 17.34 129.02 17.38 128.88 17.38C128.74 17.39 128.62 17.34 128.53 17.24ZM128.56 27.93V20.12C128.56 20.03 128.59 19.95 128.65 19.89C128.71 19.83 128.79 19.8 128.87 19.8C128.95 19.8 129.03 19.83 129.09 19.89C129.15 19.95 129.19 20.02 129.19 20.12V27.93C129.19 28.03 129.16 28.1 129.09 28.16C129.03 28.22 128.95 28.25 128.87 28.25C128.79 28.25 128.71 28.22 128.65 28.16C128.59 28.1 128.56 28.02 128.56 27.93Z" fill="black"/>
<path d="M136.56 22.56V23.66C136.56 23.74 136.53 23.82 136.46 23.88C136.4 23.94 136.32 23.98 136.24 23.98H131.35V25.48C131.35 26.1 131.59 26.64 132.08 27.09C132.57 27.54 133.14 27.77 133.79 27.77C134.14 27.77 134.5 27.7 134.87 27.56C135.24 27.42 135.52 27.22 135.7 26.97C135.76 26.88 135.85 26.83 135.97 26.83C136.05 26.83 136.13 26.86 136.19 26.92C136.25 26.98 136.28 27.06 136.28 27.14C136.28 27.21 136.21 27.34 136.08 27.5C135.51 28.1 134.75 28.4 133.79 28.4C132.98 28.4 132.26 28.12 131.64 27.55C131.02 26.98 130.71 26.29 130.71 25.48V22.56C130.71 21.76 131 21.07 131.57 20.5C132.14 19.93 132.83 19.64 133.63 19.64C134.43 19.64 135.12 19.93 135.69 20.5C136.27 21.08 136.56 21.76 136.56 22.56ZM135.93 23.35V22.56C135.93 21.93 135.71 21.39 135.26 20.94C134.81 20.49 134.27 20.27 133.64 20.27C133.01 20.27 132.47 20.49 132.02 20.94C131.57 21.39 131.35 21.93 131.35 22.56V23.35H135.93Z" fill="black"/>
<path d="M143.47 22.56V27.92C143.47 28.02 143.44 28.09 143.37 28.15C143.31 28.21 143.23 28.24 143.15 28.24C143.07 28.24 142.99 28.21 142.93 28.15C142.87 28.09 142.83 28.01 142.83 27.92V22.56C142.83 21.93 142.61 21.39 142.16 20.94C141.71 20.49 141.17 20.27 140.54 20.27C139.91 20.27 139.37 20.49 138.92 20.94C138.47 21.39 138.25 21.93 138.25 22.56V27.92C138.25 28.02 138.22 28.09 138.15 28.15C138.09 28.21 138.01 28.24 137.93 28.24C137.84 28.24 137.77 28.21 137.71 28.15C137.65 28.09 137.61 28.01 137.61 27.92V22.56C137.61 21.76 137.89 21.08 138.46 20.5C139.03 19.93 139.72 19.64 140.53 19.64C141.34 19.64 142.03 19.93 142.6 20.5C143.19 21.08 143.47 21.76 143.47 22.56Z" fill="black"/>
<path d="M150.13 27.14C150.13 27.21 150.06 27.34 149.92 27.5C149.35 28.1 148.59 28.4 147.63 28.4C146.79 28.4 146.11 28.17 145.59 27.7C145.07 27.23 144.81 26.61 144.81 25.85V22.2C144.81 21.43 145.07 20.81 145.59 20.35C146.11 19.88 146.79 19.65 147.63 19.65C148.08 19.65 148.54 19.74 148.99 19.92C149.45 20.1 149.81 20.38 150.07 20.73C150.1 20.79 150.12 20.85 150.12 20.9C150.12 20.99 150.08 21.06 150.02 21.12C149.95 21.18 149.88 21.22 149.79 21.22C149.75 21.22 149.71 21.21 149.67 21.19C149.63 21.17 149.61 21.15 149.59 21.14C149.57 21.12 149.55 21.1 149.52 21.05C149.49 21.01 149.47 20.98 149.46 20.97C149 20.51 148.39 20.28 147.63 20.28C146.95 20.28 146.41 20.46 146.02 20.82C145.63 21.18 145.44 21.64 145.44 22.21V25.85C145.44 26.42 145.64 26.88 146.02 27.24C146.41 27.6 146.95 27.78 147.63 27.78C147.98 27.78 148.34 27.71 148.71 27.57C149.08 27.43 149.36 27.23 149.54 26.98C149.6 26.88 149.69 26.84 149.81 26.84C149.89 26.84 149.97 26.87 150.03 26.93C150.1 26.98 150.13 27.05 150.13 27.14Z" fill="black"/>
<path d="M157.31 22.56V23.66C157.31 23.74 157.28 23.82 157.21 23.88C157.15 23.94 157.07 23.98 156.99 23.98H152.1V25.48C152.1 26.1 152.34 26.64 152.83 27.09C153.32 27.54 153.89 27.77 154.54 27.77C154.89 27.77 155.25 27.7 155.62 27.56C155.99 27.42 156.27 27.22 156.45 26.97C156.51 26.88 156.6 26.83 156.72 26.83C156.8 26.83 156.88 26.86 156.94 26.92C157 26.98 157.03 27.06 157.03 27.14C157.03 27.21 156.96 27.34 156.83 27.5C156.26 28.1 155.5 28.4 154.54 28.4C153.73 28.4 153.01 28.12 152.39 27.55C151.77 26.98 151.46 26.29 151.46 25.48V22.56C151.46 21.76 151.75 21.07 152.32 20.5C152.89 19.93 153.58 19.64 154.38 19.64C155.18 19.64 155.87 19.93 156.44 20.5C157.02 21.08 157.31 21.76 157.31 22.56ZM156.68 23.35V22.56C156.68 21.93 156.46 21.39 156.01 20.94C155.56 20.49 155.02 20.27 154.39 20.27C153.76 20.27 153.22 20.49 152.77 20.94C152.32 21.39 152.1 21.93 152.1 22.56V23.35H156.68Z" fill="black"/>
<path d="M168.88 22.56V25.48C168.88 26.29 168.6 26.98 168.03 27.55C167.46 28.12 166.77 28.4 165.96 28.4C165.01 28.4 164.25 28.03 163.67 27.3V31.09C163.67 31.18 163.64 31.26 163.57 31.32C163.51 31.38 163.43 31.41 163.35 31.41C163.27 31.41 163.19 31.38 163.13 31.32C163.07 31.26 163.04 31.19 163.04 31.09V22.57C163.04 21.77 163.32 21.08 163.89 20.51C164.46 19.94 165.15 19.65 165.96 19.65C166.77 19.65 167.46 19.94 168.03 20.51C168.59 21.08 168.88 21.76 168.88 22.56ZM168.25 25.48V22.56C168.25 21.93 168.03 21.39 167.58 20.94C167.13 20.49 166.59 20.27 165.96 20.27C165.33 20.27 164.79 20.49 164.34 20.94C163.89 21.39 163.67 21.93 163.67 22.56V25.48C163.67 26.11 163.89 26.65 164.34 27.1C164.79 27.55 165.33 27.77 165.96 27.77C166.59 27.77 167.13 27.55 167.58 27.1C168.02 26.65 168.25 26.11 168.25 25.48Z" fill="black"/>
<path d="M175.68 22.2V25.84C175.68 26.59 175.42 27.2 174.89 27.68C174.36 28.16 173.73 28.4 172.98 28.4C172.22 28.4 171.58 28.19 171.06 27.76C170.53 27.33 170.27 26.75 170.27 26C170.27 25.34 170.5 24.8 170.96 24.4C171.42 24 172 23.71 172.72 23.56L175.06 23.05V22.2C175.06 21.61 174.89 21.14 174.54 20.8C174.19 20.45 173.69 20.28 173.03 20.28C172.69 20.28 172.4 20.33 172.15 20.43C171.9 20.53 171.71 20.64 171.6 20.75C171.49 20.87 171.37 20.97 171.27 21.07C171.16 21.17 171.07 21.22 171 21.22C170.92 21.22 170.84 21.19 170.78 21.13C170.72 21.07 170.68 21 170.68 20.92C170.68 20.82 170.74 20.7 170.87 20.56C171.4 19.95 172.12 19.65 173.03 19.65C173.86 19.65 174.51 19.88 174.99 20.35C175.44 20.81 175.68 21.43 175.68 22.2ZM175.05 23.71L172.81 24.21C172.23 24.35 171.77 24.57 171.42 24.87C171.07 25.17 170.9 25.55 170.9 26C170.9 26.54 171.09 26.96 171.48 27.28C171.86 27.6 172.37 27.76 172.99 27.76C173.58 27.76 174.07 27.58 174.47 27.22C174.86 26.86 175.06 26.4 175.06 25.84V23.71H175.05Z" fill="black"/>
<path d="M181.62 20.59C181.62 20.68 181.59 20.75 181.52 20.81C181.45 20.87 181.38 20.9 181.29 20.9C181.24 20.9 181.13 20.84 180.97 20.73C180.58 20.42 180.14 20.27 179.66 20.27C179.04 20.27 178.56 20.48 178.21 20.91C177.86 21.34 177.69 21.92 177.69 22.67V27.92C177.69 28.02 177.66 28.09 177.6 28.15C177.54 28.21 177.46 28.24 177.38 28.24C177.3 28.24 177.22 28.21 177.16 28.15C177.1 28.09 177.06 28.02 177.06 27.92V22.67C177.06 21.79 177.29 21.06 177.74 20.49C178.19 19.92 178.84 19.64 179.67 19.64C179.99 19.64 180.32 19.71 180.67 19.84C181.02 19.97 181.3 20.15 181.51 20.37C181.59 20.44 181.62 20.52 181.62 20.59Z" fill="black"/>
<path d="M188.4 27.93C188.4 28.01 188.37 28.08 188.31 28.15C188.25 28.21 188.17 28.24 188.09 28.24C187.98 28.24 187.9 28.2 187.84 28.12L184.76 24L183.35 25.65V27.92C183.35 28.02 183.32 28.09 183.25 28.15C183.19 28.21 183.11 28.24 183.03 28.24C182.95 28.24 182.87 28.21 182.81 28.15C182.75 28.09 182.71 28.01 182.71 27.92V16.57C182.71 16.47 182.74 16.4 182.81 16.34C182.87 16.28 182.95 16.25 183.03 16.25C183.11 16.25 183.19 16.28 183.25 16.34C183.31 16.4 183.35 16.47 183.35 16.57V24.71L187.45 19.92C187.51 19.84 187.59 19.81 187.68 19.81C187.76 19.81 187.83 19.84 187.9 19.9C187.96 19.96 187.99 20.03 187.99 20.12C187.99 20.21 187.96 20.27 187.91 20.32L185.16 23.53L188.33 27.75C188.38 27.8 188.4 27.86 188.4 27.93Z" fill="black"/>
</g>
<defs>
<clipPath id="clip0">
<rect width="188.4" height="31.48" fill="white"/>
</clipPath>
</defs>
</svg>
