<svg width="207" height="32" viewBox="0 0 207 32" fill="none" xmlns="http://www.w3.org/2000/svg">
<g clip-path="url(#clip0)">
<path d="M27.7 23.81L17.59 19.46L24 13.64L26.89 18.74C27.96 20.63 28.24 22.44 27.7 23.81ZM22.61 26.41H9.92999L15.99 20.91L26.43 25.39C25.49 26.05 24.17 26.41 22.61 26.41ZM7.00999 26.39C4.94999 26.27 3.37999 25.5 2.65999 24.24C2.17999 23.39 2.06999 22.32 2.32999 21.14L8.22999 17.57L13.99 20.05L7.00999 26.39ZM9.29999 8.1L13.72 11.95L3.69999 18.01L9.29999 8.1ZM10.94 5.23C11.05 5.04 11.16 4.86 11.28 4.69C12.38 3.1 13.73 2.2 15.08 2.2C15.85 2.2 16.61 2.49 17.34 3.03L14.14 9.69L10.3 6.35L10.94 5.23ZM18.42 16.04L15.6 18.6L10.3 16.32L15.29 13.3L18.42 16.04ZM18.87 4.66C18.99 4.84 19.11 5.03 19.23 5.23L19.91 6.4L23.01 11.89L19.9 14.72L15.71 11.07L18.82 4.59C18.83 4.61 18.85 4.63 18.87 4.66ZM28.8 17.66L21.28 4.37C19.71 1.59 17.45 0 15.08 0C12.71 0 10.45 1.59 8.87999 4.37L1.35999 17.66C-0.210011 20.44 -0.440011 23.23 0.739989 25.32C1.91999 27.41 4.39999 28.61 7.54999 28.61H22.6C25.74 28.61 28.23 27.41 29.41 25.32C30.6 23.23 30.38 20.44 28.8 17.66Z" fill="#010202"/>
<path d="M42.28 10.28C42.28 11.27 43.07 12.06 44.06 12.06C45.05 12.06 45.84 11.27 45.84 10.28V7.40996C45.84 6.41996 45.05 5.62996 44.06 5.62996C43.07 5.62996 42.28 6.41996 42.28 7.40996V10.28ZM42.28 15.78C42.28 16.29 41.89 16.55 41.5 16.55C41.11 16.55 40.72 16.29 40.72 15.78V7.40996C40.72 5.55996 42.21 4.07996 44.05 4.07996C45.89 4.07996 47.38 5.56996 47.38 7.40996V10.28C47.38 12.13 45.89 13.61 44.05 13.61C43.35 13.61 42.72 13.35 42.27 12.94V15.78H42.28Z" fill="#010202"/>
<path d="M54.65 12.3399C54.03 13.2099 52.91 13.6099 51.88 13.6099C50.02 13.6099 48.64 12.4299 48.64 10.6299V7.04995C48.64 5.24995 50.02 4.06995 51.88 4.06995C52.82 4.06995 54.1 4.48995 54.65 5.33995C54.76 5.48995 54.81 5.63995 54.81 5.78995C54.81 6.20995 54.41 6.55995 54 6.55995C53.77 6.55995 53.57 6.43995 53.38 6.19995C53.04 5.76995 52.42 5.60995 51.88 5.60995C50.73 5.60995 50.19 6.22995 50.19 7.03995V10.6199C50.19 11.4299 50.73 12.0499 51.88 12.0499C52.47 12.0499 52.98 11.8799 53.38 11.4599C53.55 11.2099 53.77 11.0999 54 11.0999C54.4 11.0999 54.81 11.4599 54.81 11.8699C54.81 12.0399 54.76 12.1799 54.65 12.3399Z" fill="#010202"/>
<path d="M56.46 5.00999C56.46 4.49999 56.85 4.22999 57.23 4.22999C57.62 4.22999 58 4.48999 58 5.00999V12.68C58 13.19 57.61 13.45 57.23 13.45C56.84 13.45 56.46 13.19 56.46 12.68V5.00999ZM57.24 0.73999C57.8 0.73999 58.26 1.20999 58.26 1.75999C58.26 2.31999 57.8 2.77999 57.24 2.77999C56.68 2.77999 56.22 2.31999 56.22 1.75999C56.22 1.20999 56.68 0.73999 57.24 0.73999Z" fill="#010202"/>
<path d="M62.74 7.81995C63.3 7.81995 63.76 8.28995 63.76 8.83995C63.76 9.39995 63.3 9.85995 62.74 9.85995C62.18 9.85995 61.72 9.38995 61.72 8.83995C61.72 8.28995 62.18 7.81995 62.74 7.81995Z" fill="#010202"/>
<path d="M73.24 12.3399C72.62 13.2099 71.5 13.6099 70.47 13.6099C68.61 13.6099 67.23 12.4299 67.23 10.6299V7.04995C67.23 5.24995 68.61 4.06995 70.47 4.06995C71.41 4.06995 72.69 4.48995 73.24 5.33995C73.35 5.48995 73.39 5.63995 73.39 5.78995C73.39 6.20995 72.99 6.55995 72.58 6.55995C72.35 6.55995 72.15 6.43995 71.96 6.19995C71.62 5.76995 71 5.60995 70.46 5.60995C69.31 5.60995 68.77 6.22995 68.77 7.03995V10.6199C68.77 11.4299 69.31 12.0499 70.46 12.0499C71.05 12.0499 71.56 11.8799 71.96 11.4599C72.13 11.2099 72.35 11.0999 72.58 11.0999C72.98 11.0999 73.39 11.4599 73.39 11.8699C73.39 12.0399 73.34 12.1799 73.24 12.3399Z" fill="#010202"/>
<path d="M79.25 6.25996C79.06 6.25996 78.86 6.17996 78.69 6.00996L78.66 5.97996C78.38 5.74996 78.01 5.61996 77.65 5.61996C76.77 5.61996 76.18 6.20996 76.18 7.50996V12.67C76.18 13.18 75.79 13.44 75.4 13.44C75.01 13.44 74.62 13.18 74.62 12.67V7.51996C74.62 5.70996 75.61 4.07996 77.64 4.07996C78.35 4.07996 79.27 4.38996 79.79 4.92996C79.94 5.09996 80.02 5.28996 80.02 5.46996C80.04 5.88996 79.65 6.25996 79.25 6.25996Z" fill="#010202"/>
<path d="M85.85 7.40996C85.85 6.41996 85.06 5.62996 84.07 5.62996C83.08 5.62996 82.29 6.41996 82.29 7.40996V7.71996H85.86V7.40996H85.85ZM86.63 9.26996H82.29V10.28C82.29 11.21 83.19 12.06 84.23 12.06C84.82 12.06 85.33 11.89 85.73 11.47C85.9 11.22 86.12 11.11 86.35 11.11C86.75 11.11 87.16 11.47 87.16 11.88C87.16 12.03 87.11 12.17 87.01 12.33C87.01 12.33 86.95 12.44 86.81 12.58C86.16 13.28 85.18 13.6 84.24 13.6C82.46 13.6 80.75 12.16 80.75 10.27V7.40996C80.75 5.55996 82.24 4.07996 84.08 4.07996C85.93 4.07996 87.41 5.56996 87.41 7.40996V8.49996C87.4 8.90996 87.05 9.26996 86.63 9.26996Z" fill="#010202"/>
<path d="M93.18 9.05006L91.55 9.42006C90.53 9.64006 90.03 10.2101 90.03 10.7801C90.03 11.5201 90.59 12.0501 91.59 12.0501C92.54 12.0501 93.17 11.4301 93.17 10.6201V9.05006H93.18ZM91.62 13.6101C90.04 13.6101 88.49 12.6701 88.49 10.8001C88.49 9.08006 89.92 8.24006 91.4 7.93006L93.18 7.54006V7.04006C93.18 6.17006 92.73 5.61006 91.65 5.61006C90.5 5.61006 90.38 6.55006 89.65 6.55006C89.23 6.55006 88.88 6.23006 88.88 5.78006C88.88 5.53006 89 5.32006 89.16 5.14006C89.78 4.43006 90.71 4.06006 91.66 4.06006C93.58 4.06006 94.74 5.30006 94.74 7.04006V10.6201C94.73 12.4301 93.26 13.6101 91.62 13.6101Z" fill="#010202"/>
<path d="M96.21 2.57005C96.21 2.06005 96.6 1.80005 96.98 1.80005C97.37 1.80005 97.75 2.06005 97.75 2.57005V4.23005H100.18C100.69 4.23005 100.95 4.62005 100.95 5.01005C100.95 5.40005 100.69 5.78005 100.18 5.78005H97.75V11.11C97.75 11.59 98.11 12.05 98.87 12.05C99.61 12.05 99.88 11.48 100.36 11.48C100.87 11.48 101.15 11.91 101.15 12.33C101.15 12.64 100.93 12.81 100.7 12.98C100.17 13.37 99.52 13.6 98.87 13.6C97.37 13.6 96.2 12.54 96.2 11.1V2.57005H96.21Z" fill="#010202"/>
<path d="M102.34 5.00999C102.34 4.49999 102.73 4.22999 103.11 4.22999C103.5 4.22999 103.88 4.48999 103.88 5.00999V12.68C103.88 13.19 103.49 13.45 103.11 13.45C102.72 13.45 102.34 13.19 102.34 12.68V5.00999ZM103.12 0.73999C103.68 0.73999 104.14 1.20999 104.14 1.75999C104.14 2.31999 103.68 2.77999 103.12 2.77999C102.56 2.77999 102.1 2.31999 102.1 1.75999C102.1 1.20999 102.56 0.73999 103.12 0.73999Z" fill="#010202"/>
<path d="M112.63 5.28999L109.68 12.96C109.53 13.38 109.25 13.58 108.97 13.58C108.68 13.58 108.4 13.38 108.24 12.96L105.3 5.28999C105.25 5.17999 105.24 5.06999 105.24 4.97999C105.24 4.52999 105.64 4.23999 106.05 4.23999C106.33 4.23999 106.61 4.37999 106.75 4.73999L108.98 10.68L111.2 4.73999C111.34 4.37999 111.62 4.23999 111.9 4.23999C112.3 4.23999 112.71 4.53999 112.71 4.97999C112.69 5.06999 112.68 5.17999 112.63 5.28999Z" fill="#010202"/>
<path d="M118.34 7.40996C118.34 6.41996 117.55 5.62996 116.56 5.62996C115.57 5.62996 114.78 6.41996 114.78 7.40996V7.71996H118.35V7.40996H118.34ZM119.12 9.26996H114.78V10.28C114.78 11.21 115.68 12.06 116.72 12.06C117.31 12.06 117.82 11.89 118.22 11.47C118.39 11.22 118.61 11.11 118.84 11.11C119.24 11.11 119.64 11.47 119.64 11.88C119.64 12.03 119.59 12.17 119.49 12.33C119.49 12.33 119.43 12.44 119.29 12.58C118.64 13.28 117.66 13.6 116.72 13.6C114.94 13.6 113.23 12.16 113.23 10.27V7.40996C113.23 5.55996 114.72 4.07996 116.56 4.07996C118.41 4.07996 119.89 5.56996 119.89 7.40996V8.49996C119.89 8.90996 119.54 9.26996 119.12 9.26996Z" fill="#010202"/>
<path d="M127.07 13.6C126.17 13.6 124.98 13.2 124.45 12.41C124.34 12.25 124.3 12.1 124.3 11.94C124.3 11.52 124.7 11.16 125.1 11.16C125.32 11.16 125.53 11.28 125.72 11.5C126.06 11.92 126.59 12.07 127.07 12.07C128.17 12.07 128.71 11.42 128.71 10.83C128.71 8.92005 124.35 9.64005 124.35 6.58005C124.35 4.87005 125.82 4.05005 127.17 4.05005C128.13 4.05005 129.25 4.58005 129.79 5.41005C129.88 5.55005 129.91 5.70005 129.91 5.84005C129.91 6.27005 129.52 6.61005 129.1 6.61005C128.87 6.61005 128.67 6.49005 128.48 6.24005C128.17 5.81005 127.72 5.56005 127.16 5.56005C126.32 5.56005 125.89 6.04005 125.89 6.57005C125.89 8.17005 130.25 7.62005 130.25 10.82C130.27 12.58 128.7 13.6 127.07 13.6Z" fill="#010202"/>
<path d="M137.88 12.3301C137.26 13.2001 136.14 13.6001 135.11 13.6001C133.25 13.6001 131.87 12.4201 131.87 10.6201V7.04006C131.87 5.24006 133.25 4.06006 135.11 4.06006C136.06 4.06006 137.33 4.48006 137.88 5.33006C137.99 5.48006 138.03 5.63006 138.03 5.78006C138.03 6.20006 137.63 6.55006 137.22 6.55006C136.99 6.55006 136.79 6.43006 136.6 6.19006C136.26 5.76006 135.64 5.60006 135.1 5.60006C133.95 5.60006 133.41 6.22006 133.41 7.03006V10.6101C133.41 11.4201 133.95 12.0401 135.1 12.0401C135.69 12.0401 136.2 11.8701 136.6 11.4501C136.77 11.2001 136.99 11.0901 137.22 11.0901C137.62 11.0901 138.03 11.4501 138.03 11.8601C138.03 12.0301 137.98 12.1701 137.88 12.3301Z" fill="#010202"/>
<path d="M139.69 4.98998C139.69 4.47998 140.08 4.21998 140.47 4.21998C140.86 4.21998 141.24 4.47998 141.24 4.98998V12.66C141.24 13.17 140.85 13.43 140.47 13.43C140.08 13.43 139.69 13.17 139.69 12.66V4.98998ZM140.46 0.72998C141.02 0.72998 141.48 1.19998 141.48 1.74998C141.48 2.30998 141.02 2.76998 140.46 2.76998C139.9 2.76998 139.44 2.30998 139.44 1.74998C139.44 1.19998 139.9 0.72998 140.46 0.72998Z" fill="#010202"/>
<path d="M147.73 7.39995C147.73 6.40995 146.94 5.61995 145.95 5.61995C144.96 5.61995 144.17 6.40995 144.17 7.39995V7.70995H147.74V7.39995H147.73ZM148.5 9.25995H144.16V10.2699C144.16 11.1999 145.06 12.0499 146.1 12.0499C146.69 12.0499 147.2 11.8799 147.6 11.4599C147.77 11.2099 147.99 11.0999 148.22 11.0999C148.62 11.0999 149.03 11.4599 149.03 11.8799C149.03 12.0299 148.98 12.1699 148.88 12.3299C148.88 12.3299 148.82 12.4399 148.68 12.5799C148.03 13.2799 147.05 13.5999 146.11 13.5999C144.33 13.5999 142.62 12.1599 142.62 10.2699V7.39995C142.62 5.54995 144.11 4.06995 145.95 4.06995C147.8 4.06995 149.28 5.55995 149.28 7.39995V8.47995C149.28 8.89995 148.92 9.25995 148.5 9.25995Z" fill="#010202"/>
<path d="M156.33 13.4399C155.94 13.4399 155.56 13.1799 155.56 12.6699V7.39995C155.56 6.40995 154.77 5.61995 153.78 5.61995C152.79 5.61995 152 6.40995 152 7.39995V12.6699C152 13.1799 151.61 13.4399 151.23 13.4399C150.84 13.4399 150.45 13.1799 150.45 12.6699V7.39995C150.45 5.54995 151.94 4.06995 153.78 4.06995C155.63 4.06995 157.11 5.55995 157.11 7.39995V12.6699C157.11 13.1799 156.72 13.4399 156.33 13.4399Z" fill="#010202"/>
<path d="M164.59 12.3301C163.97 13.2001 162.85 13.6001 161.82 13.6001C159.96 13.6001 158.58 12.4201 158.58 10.6201V7.04006C158.58 5.24006 159.96 4.06006 161.82 4.06006C162.77 4.06006 164.03 4.48006 164.59 5.33006C164.7 5.48006 164.74 5.63006 164.74 5.78006C164.74 6.20006 164.34 6.55006 163.93 6.55006C163.7 6.55006 163.5 6.43006 163.31 6.19006C162.97 5.76006 162.35 5.60006 161.81 5.60006C160.66 5.60006 160.12 6.22006 160.12 7.03006V10.6101C160.12 11.4201 160.66 12.0401 161.81 12.0401C162.4 12.0401 162.91 11.8701 163.31 11.4501C163.48 11.2001 163.7 11.0901 163.93 11.0901C164.33 11.0901 164.74 11.4501 164.74 11.8601C164.74 12.0301 164.7 12.1701 164.59 12.3301Z" fill="#010202"/>
<path d="M171.19 7.39995C171.19 6.40995 170.4 5.61995 169.41 5.61995C168.42 5.61995 167.63 6.40995 167.63 7.39995V7.70995H171.2V7.39995H171.19ZM171.96 9.25995H167.62V10.2699C167.62 11.1999 168.52 12.0499 169.56 12.0499C170.15 12.0499 170.66 11.8799 171.06 11.4599C171.23 11.2099 171.45 11.0999 171.68 11.0999C172.08 11.0999 172.49 11.4599 172.49 11.8799C172.49 12.0299 172.44 12.1699 172.34 12.3299C172.34 12.3299 172.28 12.4399 172.14 12.5799C171.49 13.2799 170.51 13.5999 169.57 13.5999C167.79 13.5999 166.08 12.1599 166.08 10.2699V7.39995C166.08 5.54995 167.57 4.06995 169.41 4.06995C171.26 4.06995 172.74 5.55995 172.74 7.39995V8.47995C172.74 8.89995 172.38 9.25995 171.96 9.25995Z" fill="#010202"/>
<path d="M179.26 10.2699C179.26 11.2599 180.05 12.0499 181.04 12.0499C182.03 12.0499 182.82 11.2599 182.82 10.2699V7.39995C182.82 6.40995 182.03 5.61995 181.04 5.61995C180.05 5.61995 179.26 6.40995 179.26 7.39995V10.2699ZM179.26 15.7699C179.26 16.2799 178.87 16.5499 178.48 16.5499C178.09 16.5499 177.7 16.2899 177.7 15.7699V7.39995C177.7 5.54995 179.19 4.06995 181.03 4.06995C182.88 4.06995 184.36 5.55995 184.36 7.39995V10.2699C184.36 12.1099 182.87 13.5999 181.03 13.5999C180.33 13.5999 179.7 13.3399 179.25 12.9299V15.7699H179.26Z" fill="#010202"/>
<path d="M190.55 9.04006L188.92 9.41006C187.9 9.63006 187.4 10.2001 187.4 10.7701C187.4 11.5101 187.96 12.0401 188.97 12.0401C189.92 12.0401 190.55 11.4201 190.55 10.6101V9.04006ZM188.98 13.6001C187.4 13.6001 185.85 12.6501 185.85 10.7901C185.85 9.07006 187.28 8.23006 188.76 7.92006L190.54 7.53006V7.03006C190.54 6.16006 190.09 5.60006 189 5.60006C187.85 5.60006 187.73 6.55006 187 6.55006C186.58 6.55006 186.23 6.22006 186.23 5.78006C186.23 5.53006 186.35 5.31006 186.51 5.14006C187.13 4.43006 188.06 4.06006 189.01 4.06006C190.93 4.06006 192.1 5.30006 192.1 7.04006V10.6201C192.1 12.4201 190.63 13.6001 188.98 13.6001Z" fill="#010202"/>
<path d="M198.19 6.24995C198 6.24995 197.8 6.16995 197.63 5.99995L197.6 5.96995C197.32 5.73995 196.95 5.60995 196.59 5.60995C195.71 5.60995 195.12 6.19995 195.12 7.49995V12.6599C195.12 13.1699 194.73 13.4299 194.34 13.4299C193.95 13.4299 193.57 13.1699 193.57 12.6599V7.50995C193.57 5.69995 194.56 4.06995 196.59 4.06995C197.3 4.06995 198.22 4.37995 198.75 4.91995C198.9 5.08995 198.98 5.27995 198.98 5.45995C198.98 5.87995 198.6 6.24995 198.19 6.24995Z" fill="#010202"/>
<path d="M205.81 13.46C205.59 13.46 205.38 13.37 205.21 13.13L202.53 9.55998L201.63 10.61V12.66C201.63 13.17 201.24 13.43 200.85 13.43C200.46 13.43 200.08 13.17 200.08 12.66V1.50998C200.08 0.99998 200.47 0.72998 200.85 0.72998C201.24 0.72998 201.63 0.98998 201.63 1.50998V8.24998L204.84 4.49998C205.01 4.29998 205.21 4.20998 205.41 4.20998C205.83 4.20998 206.22 4.57998 206.22 4.99998C206.22 5.16998 206.16 5.33998 206.02 5.49998L203.57 8.36998L206.45 12.21C206.57 12.36 206.62 12.53 206.62 12.68C206.62 13.1 206.22 13.46 205.81 13.46Z" fill="#010202"/>
<path d="M46.21 22.34V26C46.21 26.75 45.95 27.37 45.42 27.85C44.89 28.33 44.25 28.57 43.5 28.57C42.74 28.57 42.1 28.36 41.57 27.93C41.04 27.5 40.78 26.91 40.78 26.16C40.78 25.5 41.01 24.96 41.47 24.55C41.93 24.14 42.52 23.86 43.24 23.7L45.59 23.19V22.33C45.59 21.74 45.41 21.27 45.07 20.92C44.72 20.57 44.21 20.4 43.55 20.4C43.21 20.4 42.92 20.45 42.66 20.55C42.41 20.65 42.22 20.76 42.11 20.87C41.99 20.99 41.88 21.09 41.78 21.19C41.67 21.29 41.58 21.34 41.51 21.34C41.42 21.34 41.35 21.31 41.29 21.25C41.23 21.19 41.19 21.12 41.19 21.04C41.19 20.95 41.25 20.82 41.38 20.68C41.91 20.07 42.63 19.76 43.55 19.76C44.39 19.76 45.04 20 45.52 20.47C45.97 20.95 46.21 21.57 46.21 22.34ZM45.57 23.86L43.32 24.36C42.74 24.5 42.27 24.72 41.92 25.02C41.57 25.32 41.4 25.71 41.4 26.16C41.4 26.7 41.59 27.13 41.98 27.45C42.37 27.77 42.87 27.93 43.49 27.93C44.08 27.93 44.58 27.75 44.97 27.39C45.37 27.03 45.56 26.57 45.56 26.01V23.86H45.57Z" fill="#010202"/>
<path d="M53.92 20.35L50.91 28.2C50.85 28.38 50.76 28.47 50.63 28.47C50.51 28.47 50.42 28.38 50.35 28.22L47.34 20.38C47.3 20.27 47.31 20.18 47.38 20.09C47.45 20 47.54 19.96 47.65 19.96C47.77 19.96 47.86 20.03 47.92 20.17L50.63 27.24L53.35 20.16C53.41 20.03 53.5 19.96 53.62 19.96C53.73 19.96 53.82 20 53.89 20.09C53.95 20.15 53.96 20.24 53.92 20.35Z" fill="#010202"/>
<path d="M60.82 22.7V23.81C60.82 23.89 60.79 23.97 60.72 24.03C60.66 24.09 60.58 24.13 60.5 24.13H55.59V25.64C55.59 26.26 55.83 26.8 56.33 27.26C56.82 27.72 57.3899 27.94 58.0499 27.94C58.3999 27.94 58.7599 27.87 59.1399 27.73C59.5199 27.59 59.79 27.39 59.97 27.13C60.03 27.03 60.12 26.99 60.24 26.99C60.32 26.99 60.3999 27.02 60.4599 27.09C60.5199 27.15 60.5499 27.23 60.5499 27.31C60.5499 27.38 60.48 27.5 60.34 27.67C59.77 28.27 59 28.57 58.04 28.57C57.23 28.57 56.51 28.28 55.88 27.72C55.26 27.15 54.95 26.46 54.95 25.64V22.7C54.95 21.9 55.24 21.21 55.81 20.63C56.39 20.05 57.07 19.77 57.88 19.77C58.68 19.77 59.37 20.06 59.95 20.63C60.53 21.2 60.82 21.9 60.82 22.7ZM60.18 23.5V22.7C60.18 22.07 59.9499 21.53 59.5099 21.07C59.0599 20.62 58.5199 20.4 57.8899 20.4C57.2599 20.4 56.7099 20.62 56.2599 21.07C55.8099 21.52 55.59 22.06 55.59 22.7V23.49H60.18V23.5Z" fill="#010202"/>
<path d="M62.39 17.36C62.29 17.26 62.25 17.15 62.25 17.01C62.25 16.87 62.3 16.76 62.39 16.66C62.48 16.56 62.6 16.52 62.74 16.52C62.88 16.52 62.99 16.57 63.09 16.66C63.19 16.76 63.23 16.87 63.23 17.01C63.23 17.15 63.18 17.26 63.09 17.36C63 17.46 62.88 17.5 62.74 17.5C62.6 17.51 62.48 17.46 62.39 17.36ZM62.42 28.09V20.24C62.42 20.15 62.45 20.07 62.52 20.01C62.58 19.95 62.66 19.92 62.74 19.92C62.82 19.92 62.9 19.95 62.96 20.01C63.02 20.07 63.06 20.14 63.06 20.24V28.09C63.06 28.19 63.03 28.26 62.96 28.32C62.9 28.38 62.82 28.41 62.74 28.41C62.66 28.41 62.58 28.38 62.52 28.32C62.45 28.26 62.42 28.19 62.42 28.09Z" fill="#010202"/>
<path d="M69.3901 20.72C69.3901 20.8 69.3601 20.88 69.2901 20.94C69.2201 21 69.1501 21.03 69.0601 21.03C69.0101 21.03 68.9001 20.97 68.7401 20.86C68.3501 20.55 67.9101 20.4 67.4201 20.4C66.8001 20.4 66.3101 20.61 65.9601 21.04C65.6101 21.47 65.4401 22.06 65.4401 22.81V28.09C65.4401 28.19 65.4101 28.26 65.3501 28.32C65.2901 28.38 65.2101 28.41 65.1301 28.41C65.0401 28.41 64.9701 28.38 64.9101 28.32C64.8501 28.26 64.8101 28.18 64.8101 28.09V22.81C64.8101 21.92 65.0401 21.19 65.4901 20.62C65.9401 20.05 66.5901 19.76 67.4201 19.76C67.7401 19.76 68.0701 19.83 68.4301 19.96C68.7901 20.09 69.0701 20.27 69.2801 20.49C69.3501 20.58 69.3901 20.65 69.3901 20.72Z" fill="#010202"/>
<path d="M76.13 22.7V25.63C76.13 26.44 75.84 27.14 75.27 27.71C74.69 28.28 74 28.57 73.2 28.57C72.4 28.57 71.71 28.28 71.13 27.71C70.55 27.14 70.27 26.45 70.27 25.63V22.7C70.27 21.9 70.56 21.21 71.13 20.63C71.7 20.06 72.39 19.77 73.2 19.77C74 19.77 74.69 20.06 75.27 20.63C75.84 21.21 76.13 21.9 76.13 22.7ZM75.49 25.64V22.7C75.49 22.07 75.26 21.53 74.82 21.07C74.37 20.62 73.83 20.4 73.2 20.4C72.57 20.4 72.02 20.62 71.58 21.07C71.13 21.52 70.91 22.06 70.91 22.7V25.63C70.91 26.26 71.13 26.81 71.58 27.26C72.03 27.71 72.57 27.93 73.2 27.93C73.83 27.93 74.38 27.71 74.82 27.26C75.27 26.81 75.49 26.27 75.49 25.64Z" fill="#010202"/>
<path d="M85.7 20.72C85.7 20.8 85.66 20.88 85.6 20.94C85.53 21 85.45 21.03 85.37 21.03C85.32 21.03 85.21 20.97 85.05 20.86C84.66 20.55 84.22 20.4 83.73 20.4C83.11 20.4 82.62 20.61 82.27 21.04C81.92 21.47 81.75 22.06 81.75 22.81V28.09C81.75 28.19 81.72 28.26 81.65 28.32C81.59 28.38 81.51 28.41 81.43 28.41C81.34 28.41 81.27 28.38 81.21 28.32C81.15 28.26 81.11 28.18 81.11 28.09V22.81C81.11 21.92 81.34 21.19 81.79 20.62C82.24 20.05 82.89 19.76 83.72 19.76C84.04 19.76 84.37 19.83 84.73 19.96C85.09 20.09 85.37 20.27 85.58 20.49C85.66 20.58 85.7 20.65 85.7 20.72Z" fill="#010202"/>
<path d="M92.43 22.7V23.81C92.43 23.89 92.4 23.97 92.33 24.03C92.27 24.09 92.19 24.13 92.11 24.13H87.2V25.64C87.2 26.26 87.45 26.8 87.94 27.26C88.43 27.72 89 27.94 89.66 27.94C90.01 27.94 90.37 27.87 90.74 27.73C91.12 27.59 91.39 27.39 91.57 27.13C91.63 27.03 91.72 26.99 91.84 26.99C91.92 26.99 92 27.02 92.06 27.09C92.12 27.15 92.15 27.23 92.15 27.31C92.15 27.38 92.08 27.5 91.94 27.67C91.37 28.27 90.6 28.57 89.64 28.57C88.83 28.57 88.11 28.28 87.48 27.72C86.86 27.15 86.55 26.46 86.55 25.64V22.7C86.55 21.9 86.84 21.21 87.41 20.63C87.99 20.05 88.67 19.77 89.48 19.77C90.28 19.77 90.97 20.06 91.55 20.63C92.14 21.21 92.43 21.9 92.43 22.7ZM91.8 23.5V22.7C91.8 22.07 91.57 21.53 91.13 21.07C90.68 20.62 90.14 20.4 89.5 20.4C88.86 20.4 88.32 20.62 87.88 21.07C87.43 21.52 87.21 22.06 87.21 22.7V23.49H91.8V23.5Z" fill="#010202"/>
<path d="M99.8001 22.7V28.64C99.8001 29.45 99.5101 30.15 98.9401 30.72C98.3601 31.29 97.6701 31.58 96.8701 31.58C96.4201 31.58 95.9501 31.48 95.4801 31.29C95.0001 31.1 94.6501 30.83 94.4201 30.48C94.3901 30.42 94.3701 30.36 94.3701 30.31C94.3701 30.23 94.4001 30.15 94.4701 30.09C94.5401 30.03 94.6101 29.99 94.7001 29.99C94.7401 29.99 94.7801 30 94.8201 30.02C94.8601 30.04 94.8801 30.06 94.9001 30.08C94.9201 30.09 94.9401 30.12 94.9701 30.17C95.0001 30.21 95.0201 30.24 95.0301 30.25C95.4901 30.72 96.1101 30.95 96.8701 30.95C97.5001 30.95 98.0501 30.72 98.4901 30.28C98.9401 29.83 99.1601 29.29 99.1601 28.66V27.15C98.5801 27.89 97.8101 28.26 96.8601 28.26C96.0601 28.26 95.3701 27.97 94.7901 27.4C94.2101 26.83 93.9301 26.14 93.9301 25.32V22.7C93.9301 21.9 94.2201 21.21 94.7901 20.63C95.3701 20.06 96.0501 19.77 96.8601 19.77C97.6601 19.77 98.3501 20.06 98.9301 20.63C99.5101 21.21 99.8001 21.9 99.8001 22.7ZM99.1701 25.32V22.7C99.1701 22.07 98.9401 21.52 98.5001 21.07C98.0501 20.62 97.5101 20.4 96.8801 20.4C96.2501 20.4 95.7001 20.63 95.2601 21.07C94.8101 21.52 94.59 22.06 94.59 22.7V25.31C94.59 25.94 94.8201 26.49 95.2601 26.93C95.7101 27.38 96.2501 27.6 96.8801 27.6C97.5101 27.6 98.0601 27.38 98.5001 26.93C98.9401 26.5 99.1701 25.95 99.1701 25.32Z" fill="#010202"/>
<path d="M101.53 17.36C101.43 17.26 101.39 17.15 101.39 17.01C101.39 16.87 101.44 16.76 101.53 16.66C101.62 16.56 101.74 16.52 101.88 16.52C102.02 16.52 102.13 16.57 102.23 16.66C102.33 16.76 102.37 16.87 102.37 17.01C102.37 17.15 102.32 17.26 102.23 17.36C102.13 17.46 102.02 17.5 101.88 17.5C101.74 17.5 101.62 17.46 101.53 17.36ZM101.56 28.09V20.24C101.56 20.15 101.59 20.07 101.66 20.01C101.72 19.95 101.8 19.92 101.88 19.92C101.96 19.92 102.04 19.95 102.1 20.01C102.16 20.07 102.2 20.14 102.2 20.24V28.09C102.2 28.19 102.17 28.26 102.1 28.32C102.04 28.38 101.96 28.41 101.88 28.41C101.8 28.41 101.72 28.38 101.66 28.32C101.59 28.26 101.56 28.19 101.56 28.09Z" fill="#010202"/>
<path d="M109.74 22.7V25.63C109.74 26.44 109.45 27.14 108.88 27.71C108.3 28.28 107.61 28.57 106.81 28.57C106.01 28.57 105.32 28.28 104.74 27.71C104.16 27.14 103.88 26.45 103.88 25.63V22.7C103.88 21.9 104.17 21.21 104.74 20.63C105.32 20.06 106 19.77 106.81 19.77C107.61 19.77 108.3 20.06 108.88 20.63C109.45 21.21 109.74 21.9 109.74 22.7ZM109.1 25.64V22.7C109.1 22.07 108.87 21.53 108.43 21.07C107.98 20.62 107.44 20.4 106.81 20.4C106.18 20.4 105.63 20.62 105.19 21.07C104.74 21.52 104.52 22.06 104.52 22.7V25.63C104.52 26.26 104.75 26.81 105.19 27.26C105.64 27.71 106.18 27.93 106.81 27.93C107.44 27.93 107.99 27.71 108.43 27.26C108.88 26.81 109.1 26.27 109.1 25.64Z" fill="#010202"/>
<path d="M117.27 22.7V28.09C117.27 28.18 117.24 28.26 117.17 28.32C117.11 28.38 117.03 28.41 116.95 28.41C116.87 28.41 116.79 28.38 116.73 28.32C116.67 28.26 116.63 28.18 116.63 28.09V22.7C116.63 22.07 116.41 21.53 115.96 21.07C115.51 20.62 114.97 20.4 114.34 20.4C113.71 20.4 113.16 20.62 112.71 21.07C112.26 21.52 112.04 22.06 112.04 22.7V28.09C112.04 28.18 112.01 28.26 111.94 28.32C111.88 28.38 111.8 28.41 111.72 28.41C111.64 28.41 111.56 28.38 111.5 28.32C111.44 28.26 111.4 28.18 111.4 28.09V22.7C111.4 21.9 111.69 21.21 112.26 20.63C112.83 20.05 113.52 19.77 114.34 19.77C115.15 19.77 115.85 20.06 116.42 20.63C116.98 21.21 117.27 21.9 117.27 22.7Z" fill="#010202"/>
</g>
<defs>
<clipPath id="clip0">
<rect width="206.62" height="31.58" fill="white"/>
</clipPath>
</defs>
</svg>
